:SAMPLES-PER-SECOND 30
:FULLY-SPECIFIED
:DEGREES
444
root  2.12447 34.0437 19.4871 5.08136 31.7577 -1.35044
LeftUpLeg  -6.02303 10.889 2.45624
LeftLeg  13.7296 10.3975 1.83002
LeftFoot  -4.56238 -0.0253394 -0.8661
LeftToes  -15.2168 1.92152e-006 4.03786e-008
Spine  1.27919 0.0568807 -0.68087
Spine1  2.35245 -0.112673 -1.02914
RightShoulder  0.0420902 3.95368 7.61641
RightArm  -36.1687 -22.2987 74.0827
RightForeArm  33.1059 14.3712 2.58271
RightHand  1.15939 -13.2139 -9.61
LeftShoulder1  0.0775438 0.759216 -10.5414
LeftArm  -18.7437 14.653 -67.0883
LeftForeArm  25.817 -16.2392 -2.93886
LeftHand  0.202303 5.1851 4.21223
HEad  -6.81389 -21.6992 1.02404
RightUpLeg  -10.676 -6.03882 -6.22428
RightLeg  10.1992 2.60362 0.298686
RightFoot  4.89675 0.00812282 0.253972
RightToes  -35.0637 -0.18103 -0.281244
445
root  2.12059 34.0432 19.4672 5.0911 31.4822 -1.2662
LeftUpLeg  -5.93001 10.9552 2.36118
LeftLeg  13.6251 10.5789 1.84184
LeftFoot  -4.53328 -0.0257021 -0.874033
LeftToes  -15.1575 1.92152e-006 4.03786e-008
Spine  1.25312 0.114013 -0.668654
Spine1  2.30038 0.0166951 -1.01876
RightShoulder  0.0415644 3.92939 7.55652
RightArm  -35.9077 -21.9927 74.0544
RightForeArm  32.596 14.9161 2.68555
RightHand  1.1609 -13.1805 -9.64668
LeftShoulder1  0.0766352 0.812964 -10.4795
LeftArm  -18.4453 14.966 -67.1924
LeftForeArm  25.8384 -16.3167 -2.95366
LeftHand  0.201419 5.21159 4.11753
HEad  -6.23175 -21.4346 0.818769
RightUpLeg  -10.6594 -6.00369 -6.29998
RightLeg  10.0456 2.83404 0.31731
RightFoot  4.97226 0.0064697 0.278652
RightToes  -35.1146 -0.181242 -0.281726
446
root  2.10865 34.0428 19.4515 5.09114 31.2196 -1.2031
LeftUpLeg  -5.8348 11.0787 2.30137
LeftLeg  13.4937 10.7134 1.83986
LeftFoot  -4.47608 -0.0267052 -0.873
LeftToes  -15.0928 1.92152e-006 4.03786e-008
Spine  1.23462 0.169765 -0.666102
Spine1  2.26314 0.145052 -1.02676
RightShoulder  0.0410359 3.88257 7.49225
RightArm  -35.3706 -21.4852 74.0688
RightForeArm  32.0716 15.3835 2.77426
RightHand  1.16328 -13.1425 -9.69792
LeftShoulder1  0.0756475 0.864161 -10.4554
LeftArm  -18.2435 15.226 -67.2083
LeftForeArm  25.9735 -16.2724 -2.94515
LeftHand  0.202 5.22119 4.06543
HEad  -5.95889 -21.2331 0.661551
RightUpLeg  -10.6668 -5.92019 -6.34194
RightLeg  9.93903 2.99594 0.32972
RightFoot  5.06472 0.00506155 0.299125
RightToes  -35.2595 -0.18136 -0.282188
447
root  2.08849 34.0428 19.4354 5.0936 31.063 -1.16885
LeftUpLeg  -5.79254 11.0593 2.26922
LeftLeg  13.3911 10.8857 1.8492
LeftFoot  -4.39965 -0.0277242 -0.869694
LeftToes  -15.0847 1.92152e-006 4.03786e-008
Spine  1.23128 0.200748 -0.65658
Spine1  2.25401 0.222385 -1.01656
RightShoulder  0.040347 3.81877 7.43434
RightArm  -34.7819 -20.8685 74.1367
RightForeArm  31.751 15.8714 2.86714
RightHand  1.16476 -13.1125 -9.7338
LeftShoulder1  0.0745883 0.864634 -10.4942
LeftArm  -18.3384 15.4374 -67.1668
LeftForeArm  26.1433 -16.1367 -2.91918
LeftHand  0.202425 5.2859 4.00786
HEad  -5.95517 -21.0564 0.619242
RightUpLeg  -10.6937 -5.88138 -6.35632
RightLeg  9.87301 3.13737 0.341562
RightFoot  5.12784 0.00375444 0.31759
RightToes  -35.2189 -0.181377 -0.282626
448
root  2.0578 34.043 19.4227 5.09693 30.9786 -1.10773
LeftUpLeg  -5.82436 11.0854 2.24321
LeftLeg  13.4517 10.9319 1.86875
LeftFoot  -4.3862 -0.0282805 -0.868546
LeftToes  -15.0546 1.92152e-006 4.03786e-008
Spine  1.24781 0.220602 -0.670824
Spine1  2.28524 0.275478 -1.04551
RightShoulder  0.0394756 3.79335 7.36728
RightArm  -34.3081 -20.2701 74.2983
RightForeArm  31.3144 16.4834 2.98432
RightHand  1.15148 -13.0893 -9.63694
LeftShoulder1  0.0734653 0.823565 -10.5601
LeftArm  -18.595 15.5524 -67.0474
LeftForeArm  26.2377 -15.9017 -2.87436
LeftHand  0.206668 5.36088 4.03707
HEad  -6.08784 -20.8591 0.661921
RightUpLeg  -10.7173 -5.94735 -6.36633
RightLeg  9.84516 3.28632 0.356091
RightFoot  5.14279 0.00248486 0.335002
RightToes  -35.251 -0.181284 -0.283039
449
root  2.02023 34.0434 19.4149 5.10045 30.9802 -1.074
LeftUpLeg  -5.84277 11.0636 2.25588
LeftLeg  13.4141 10.9492 1.86434
LeftFoot  -4.29302 -0.0294712 -0.849494
LeftToes  -15.2154 1.92152e-006 4.03786e-008
Spine  1.25757 0.238648 -0.695787
Spine1  2.30255 0.321818 -1.09084
RightShoulder  0.0384963 3.79502 7.30746
RightArm  -33.961 -19.7509 74.5288
RightForeArm  30.9458 17.0959 3.10232
RightHand  1.13038 -12.8892 -9.60745
LeftShoulder1  0.0722862 0.770157 -10.6432
LeftArm  -18.7762 15.5888 -66.8541
LeftForeArm  26.3819 -15.5657 -2.81048
LeftHand  0.212658 5.35497 4.14415
HEad  -6.14233 -20.7442 0.710514
RightUpLeg  -10.7666 -6.06732 -6.33974
RightLeg  9.88536 3.42281 0.37324
RightFoot  5.10167 0.00144649 0.348321
RightToes  -35.1674 -0.181075 -0.283424
450
root  1.9788 34.0441 19.4077 5.0753 31.0602 -1.04272
LeftUpLeg  -5.89052 11.0486 2.2868
LeftLeg  13.4764 10.8916 1.86675
LeftFoot  -4.25335 -0.0296412 -0.835251
LeftToes  -15.292 1.92152e-006 4.03786e-008
Spine  1.27551 0.254821 -0.73259
Spine1  2.33713 0.362088 -1.15667
RightShoulder  0.0374996 3.73609 7.26637
RightArm  -33.2104 -19.355 74.7568
RightForeArm  30.4371 18.1274 3.30281
RightHand  1.13126 -12.8542 -9.64241
LeftShoulder1  0.0710586 0.713061 -10.7197
LeftArm  -19.0259 15.5351 -66.6548
LeftForeArm  26.6466 -15.1851 -2.73832
LeftHand  0.216293 5.39352 4.21419
HEad  -6.20087 -20.6707 0.811381
RightUpLeg  -10.7753 -6.15781 -6.3115
RightLeg  9.93168 3.44853 0.37885
RightFoot  5.0422 0.00111329 0.350155
RightToes  -35.0482 -0.180183 -0.283779
451
root  1.93395 34.0451 19.4021 5.05948 31.2107 -1.02389
LeftUpLeg  -5.93581 10.9799 2.33096
LeftLeg  13.4709 10.8232 1.85412
LeftFoot  -4.16658 -0.029519 -0.811486
LeftToes  -15.368 1.92152e-006 4.03786e-008
Spine  1.2899 0.266436 -0.772226
Spine1  2.365 0.391145 -1.22858
RightShoulder  0.0365127 3.66317 7.1931
RightArm  -32.4678 -18.9681 75.0199
RightForeArm  30.1113 18.9814 3.47062
RightHand  1.12951 -12.7729 -9.69086
LeftShoulder1  0.0697901 0.675562 -10.757
LeftArm  -19.3418 15.4352 -66.4908
LeftForeArm  26.8897 -14.8465 -2.67436
LeftHand  0.218043 5.39444 4.24773
HEad  -6.1999 -20.644 0.836773
RightUpLeg  -10.7475 -6.08947 -6.27785
RightLeg  9.89383 3.25429 0.355427
RightFoot  5.05348 0.00178941 0.335749
RightToes  -35.0475 -0.179595 -0.284103
452
root  1.89067 34.0469 19.4002 5.05884 31.4065 -1.00839
LeftUpLeg  -5.97326 10.9078 2.38098
LeftLeg  13.4075 10.7145 1.82358
LeftFoot  -4.04586 -0.0275092 -0.778819
LeftToes  -15.5069 1.92152e-006 4.03786e-008
Spine  1.29852 0.278713 -0.806521
Spine1  2.38112 0.419977 -1.2917
RightShoulder  0.0355996 3.63199 7.11612
RightArm  -31.9636 -18.615 75.2755
RightForeArm  30.0572 19.5876 3.59071
RightHand  1.12194 -12.7489 -9.64263
LeftShoulder1  0.0684885 0.660065 -10.8081
LeftArm  -19.5693 15.356 -66.3253
LeftForeArm  26.9734 -14.6489 -2.63716
LeftHand  0.21868 5.42239 4.29666
HEad  -6.12924 -20.6587 0.770601
RightUpLeg  -10.7382 -6.14808 -6.23414
RightLeg  9.89541 3.13702 0.342763
RightFoot  5.01505 0.00219851 0.324885
RightToes  -34.9405 -0.179124 -0.284393
453
root  1.84675 34.0487 19.4003 5.09013 31.6679 -0.986897
LeftUpLeg  -6.05853 10.8469 2.4284
LeftLeg  13.3719 10.5324 1.78624
LeftFoot  -3.94604 -0.0252985 -0.745962
LeftToes  -15.5741 1.92152e-006 4.03786e-008
Spine  1.30852 0.280241 -0.840356
Spine1  2.3997 0.426752 -1.35671
RightShoulder  0.0348497 3.54183 7.03962
RightArm  -31.2304 -18.2687 75.4738
RightForeArm  29.7508 19.9757 3.66826
RightHand  1.11807 -12.7501 -9.66776
LeftShoulder1  0.0671613 0.633059 -10.7827
LeftArm  -19.7887 15.3404 -66.2463
LeftForeArm  27.0233 -14.6404 -2.63555
LeftHand  0.217552 5.46796 4.28771
HEad  -6.06075 -20.6983 0.69563
RightUpLeg  -10.724 -6.18062 -6.19231
RightLeg  9.85692 2.92082 0.317262
RightFoot  4.98242 0.00313488 0.305197
RightToes  -34.8144 -0.178755 -0.284646
454
root  1.80307 34.0501 19.4016 5.10959 31.8778 -0.968632
LeftUpLeg  -6.11876 10.8949 2.48612
LeftLeg  13.3174 10.2921 1.73592
LeftFoot  -3.8276 -0.0236183 -0.706828
LeftToes  -15.813 1.92152e-006 4.03786e-008
Spine  1.32589 0.311032 -0.871287
Spine1  2.43258 0.489589 -1.41456
RightShoulder  0.0343133 3.54944 7.01436
RightArm  -30.9051 -18.0296 75.6085
RightForeArm  29.766 20.2188 3.7169
RightHand  1.1152 -12.7315 -9.66199
LeftShoulder1  0.0658163 0.633917 -10.8023
LeftArm  -19.8898 15.2634 -66.171
LeftForeArm  27.0329 -14.6742 -2.64188
LeftHand  0.219256 5.36564 4.34559
HEad  -5.98897 -20.7851 0.565912
RightUpLeg  -10.742 -6.2063 -6.14239
RightLeg  9.88229 2.74087 0.299032
RightFoot  4.94456 0.00385866 0.288138
RightToes  -34.8752 -0.178476 -0.284861
